<?xml version="1.0" standalone="no"?>
<svg
  width="600"
  height="600"
  viewBox="0 0 600 600"
  xmlns="http://www.w3.org/2000/svg"
>
  <g transform="translate(300,300)">
    <path d="M104.2,-118.7C142.5,-92.1,186,-66.3,199.6,-29.2C213.3,7.9,197.2,56.2,170.4,94.6C143.7,132.9,106.4,161.4,60.4,187.3C14.5,213.3,-40.1,236.8,-77.8,220.2C-115.4,203.7,-136.1,147.1,-157.9,97.1C-179.7,47.1,-202.6,3.7,-202.1,-41.9C-201.6,-87.5,-177.6,-135.3,-140,-162C-102.4,-188.7,-51.2,-194.4,-9.1,-183.5C33,-172.7,66,-145.3,104.2,-118.7Z" fill="#c4e0f3" />
  </g>
</svg>
  