<?xml version="1.0" standalone="no"?>
<svg
  width="600"
  height="600"
  viewBox="0 0 600 600"
  xmlns="http://www.w3.org/2000/svg"
>
  <g transform="translate(300,300)">
    <path d="M130.6,-156.8C159.7,-131.3,167,-81,163.2,-38.2C159.5,4.5,144.7,39.8,128.4,80C112.1,120.2,94.4,165.3,58.6,191.5C22.9,217.7,-30.8,224.9,-69.7,204.9C-108.6,184.9,-132.7,137.7,-155.5,92.5C-178.4,47.3,-200,4.1,-202.2,-44.8C-204.5,-93.7,-187.4,-148.4,-150.5,-172.5C-113.6,-196.7,-56.8,-190.3,-3,-186.8C50.8,-183.2,101.6,-182.4,130.6,-156.8Z" fill="#8ed1fc" />
  </g>
</svg>
  