<?xml version="1.0" standalone="no"?>
<svg
  width="600"
  height="600"
  viewBox="0 0 600 600"
  xmlns="http://www.w3.org/2000/svg"
>
  <g transform="translate(300,300)">
    <path d="M156.5,-196.2C196.1,-153.4,216.7,-97.6,220.2,-43.8C223.8,9.9,210.2,61.7,181.1,97.5C152,133.3,107.5,153.1,63.7,164.6C19.8,176,-23.3,179.2,-57,163.8C-90.7,148.4,-115.1,114.4,-144.1,77C-173.1,39.5,-206.7,-1.4,-201.5,-36.4C-196.4,-71.4,-152.5,-100.4,-112.5,-143.2C-72.4,-186,-36.2,-242.5,11.1,-255.8C58.5,-269,117,-239.1,156.5,-196.2Z" fill="#8ed1fc" />
  </g>
</svg>
  